<?xml version="1.0" standalone="no"?>
<!DOCTYPE svg PUBLIC "-//W3C//DTD SVG 20010904//EN"
 "http://www.w3.org/TR/2001/REC-SVG-20010904/DTD/svg10.dtd">
<svg version="1.0" xmlns="http://www.w3.org/2000/svg"
 width="1178.000000pt" height="1178.000000pt" viewBox="0 0 1178.000000 1178.000000"
 preserveAspectRatio="xMidYMid meet">
<metadata>
Created by potrace 1.11, written by Peter Selinger 2001-2013
</metadata>
<g transform="translate(0.000000,1178.000000) scale(0.100000,-0.100000)"
fill="#000000" stroke="none">
<path d="M8625 11757 c-14 -5 -25 -14 -25 -20 0 -7 -4 -6 -10 3 -8 13 -10 13
-10 -2 0 -16 -7 -18 -62 -18 -13 0 -38 -2 -57 -6 -26 -4 -31 -8 -20 -15 11 -7
11 -9 -4 -9 -10 0 -16 -4 -12 -9 3 -5 0 -13 -6 -17 -8 -4 -9 -3 -5 4 14 23
-12 11 -27 -12 -12 -18 -15 -47 -14 -125 2 -79 -1 -102 -12 -106 -19 -7 -100
5 -106 16 -6 9 -35 1 -35 -11 0 -4 9 -10 21 -13 13 -4 20 -12 17 -24 -2 -14
-14 -19 -48 -21 -25 -2 -52 -9 -60 -17 -8 -7 -24 -15 -35 -17 -16 -2 -21 -13
-25 -53 -4 -39 -13 -59 -40 -89 -19 -21 -47 -44 -62 -52 -29 -15 -41 -27 -78
-74 -49 -64 -67 -79 -96 -83 -16 -2 -35 0 -41 6 -7 5 -13 7 -13 3 0 -3 -16 3
-35 14 -20 11 -42 20 -50 20 -8 0 -15 3 -15 8 0 4 -12 12 -27 18 -61 25 -68
28 -78 29 -5 1 -32 5 -60 10 -59 9 -99 12 -256 19 -107 4 -183 -6 -239 -31 -8
-3 -18 -7 -22 -8 -5 -2 -9 -3 -10 -5 -2 -1 -10 -3 -18 -5 -8 -2 -28 -9 -45
-16 -16 -6 -39 -14 -49 -16 -11 -2 -25 -8 -33 -14 -7 -6 -13 -9 -13 -5 0 14
-80 -38 -132 -87 -79 -74 -85 -93 -45 -148 36 -51 57 -73 57 -64 0 4 19 -11
42 -34 24 -22 46 -41 50 -41 4 0 17 -10 30 -23 13 -12 39 -33 58 -46 19 -13
45 -34 56 -45 30 -29 63 -56 70 -56 9 0 104 -94 104 -103 0 -5 -8 -19 -18 -32
-13 -17 -23 -20 -34 -14 -10 5 -19 5 -22 0 -3 -4 -23 -5 -45 -1 -25 4 -44 3
-50 -3 -8 -8 -11 -7 -11 2 0 7 -5 9 -12 5 -7 -4 -35 -6 -62 -4 -75 5 -89 7
-108 15 -9 4 -21 4 -27 1 -5 -4 -13 -2 -16 4 -5 8 -11 8 -20 0 -9 -8 -14 -8
-17 1 -3 8 -9 7 -20 -5 -9 -9 -22 -14 -30 -12 -7 3 -34 7 -59 10 -54 5 -129
24 -144 36 -23 17 -155 58 -225 69 -41 7 -84 14 -95 16 -163 32 -323 45 -400
32 -29 -4 -44 -2 -57 9 -16 15 -134 36 -150 28 -8 -5 -155 34 -180 47 -9 5
-41 11 -71 13 -29 2 -64 9 -78 17 -13 7 -28 14 -34 15 -102 19 -174 38 -192
50 -23 14 -142 38 -238 48 -27 2 -50 5 -50 6 0 1 -9 3 -20 5 -11 2 -36 7 -55
10 -19 4 -46 9 -60 11 -14 1 -72 11 -130 20 -58 9 -168 20 -245 24 -77 5 -162
12 -190 15 -27 4 -61 8 -75 9 -14 2 -47 7 -75 11 -27 4 -66 7 -85 7 -32 -1
-371 -13 -412 -15 -10 -1 -18 -5 -18 -9 0 -4 -7 -8 -17 -8 -9 0 -41 -12 -72
-27 -53 -26 -64 -28 -211 -29 -146 -1 -159 -3 -215 -29 -33 -15 -62 -31 -65
-36 -3 -5 -15 -10 -25 -12 -11 -1 -25 -5 -30 -9 -6 -3 -27 -9 -47 -13 -20 -4
-46 -16 -57 -26 -12 -11 -21 -17 -21 -13 0 4 -9 -1 -21 -12 -12 -10 -22 -18
-23 -16 0 2 -17 -3 -36 -11 -19 -8 -60 -17 -90 -21 -30 -3 -71 -8 -90 -10 -19
-3 -66 -7 -105 -10 -77 -6 -181 -31 -202 -48 -7 -6 -13 -7 -13 -4 0 4 -12 0
-28 -8 -15 -9 -51 -25 -79 -36 -29 -11 -72 -32 -95 -47 -24 -14 -45 -25 -47
-24 -2 2 -7 -2 -10 -7 -3 -5 -22 -17 -41 -27 -19 -10 -54 -31 -76 -46 -23 -16
-44 -25 -48 -22 -3 4 -6 1 -6 -5 0 -7 -5 -12 -12 -12 -6 0 -26 -11 -45 -26
-18 -14 -33 -23 -33 -20 0 15 -160 -141 -218 -212 -20 -26 -48 -58 -62 -72
-14 -14 -44 -50 -67 -80 -24 -30 -54 -68 -68 -85 -14 -16 -33 -40 -42 -51 -10
-12 -40 -47 -68 -79 -27 -31 -49 -61 -47 -66 1 -5 -2 -9 -6 -9 -5 0 -26 -25
-47 -55 -20 -30 -42 -55 -48 -55 -6 0 -8 -3 -4 -6 3 -3 1 -11 -4 -18 -48 -57
-61 -76 -75 -106 -9 -19 -40 -82 -68 -140 -28 -58 -51 -107 -51 -110 -1 -3
-31 -66 -68 -141 -37 -75 -67 -141 -67 -146 0 -5 -6 -15 -13 -22 -6 -6 -12
-15 -13 -19 -3 -22 -27 -72 -35 -72 -4 0 -6 -7 -3 -15 4 -8 1 -15 -5 -15 -6 0
-11 -11 -11 -25 0 -14 -4 -25 -10 -25 -5 0 -10 -6 -10 -14 0 -8 -6 -21 -14
-28 -7 -8 -20 -27 -29 -43 -8 -17 -26 -41 -39 -55 -12 -13 -23 -27 -22 -30 0
-3 -16 -27 -36 -55 -32 -43 -48 -73 -56 -107 -1 -5 -2 -9 -4 -10 -2 -4 -10
-42 -25 -123 -4 -22 -10 -49 -12 -60 -2 -11 -6 -29 -8 -40 -2 -11 -6 -31 -9
-45 -3 -14 -8 -36 -11 -50 -11 -46 -14 -384 -5 -430 5 -25 12 -67 15 -95 4
-27 10 -63 15 -80 5 -16 10 -61 11 -100 2 -38 8 -89 15 -113 7 -23 13 -44 14
-47 1 -8 11 -38 23 -70 7 -16 12 -32 13 -35 0 -3 6 -18 13 -35 7 -16 15 -41
18 -55 9 -43 7 -40 40 -120 8 -19 16 -43 18 -54 3 -10 9 -24 15 -32 7 -7 9
-17 6 -23 -4 -5 0 -15 7 -23 12 -12 34 -65 41 -101 2 -7 6 -21 10 -32 5 -11
12 -33 18 -50 5 -16 14 -39 18 -50 8 -18 19 -63 21 -82 1 -5 5 -15 10 -24 4
-9 11 -31 14 -50 3 -19 13 -53 21 -77 14 -42 35 -127 55 -227 6 -27 17 -74 25
-104 7 -30 11 -58 8 -62 -3 -5 -1 -9 3 -9 5 0 10 -17 11 -37 2 -20 7 -42 11
-48 5 -5 12 -34 15 -63 4 -30 11 -63 17 -73 5 -10 7 -19 5 -19 -3 0 -2 -10 3
-23 11 -28 61 -269 67 -322 3 -22 10 -53 16 -68 6 -15 8 -30 5 -34 -4 -3 -2
-13 2 -22 5 -9 12 -33 15 -54 3 -21 15 -55 26 -77 29 -57 26 -170 -8 -228 -22
-38 -24 -55 -26 -175 -2 -74 -5 -138 -9 -143 -3 -6 -8 -28 -11 -50 -9 -62 -23
-139 -26 -139 -1 0 -3 -11 -5 -25 -2 -14 -8 -52 -14 -85 -14 -75 -24 -153 -25
-182 0 -13 -2 -23 -5 -23 -7 0 -4 -149 5 -281 6 -84 4 -101 -14 -142 -14 -31
-23 -78 -27 -139 -12 -189 -17 -234 -36 -327 -16 -78 -20 -134 -19 -294 0
-175 -2 -204 -19 -242 -18 -42 -48 -176 -49 -220 -1 -46 -35 -202 -49 -224 -9
-14 -17 -55 -20 -95 -2 -39 -8 -95 -14 -124 -13 -67 -5 -102 32 -140 30 -30
35 -48 26 -87 -2 -11 -8 -40 -12 -65 -8 -51 -12 -74 -20 -110 -2 -14 -7 -41
-10 -60 -5 -36 -11 -66 -21 -110 -3 -14 -7 -50 -9 -80 -3 -50 2 -66 50 -166
50 -103 62 -119 160 -218 62 -61 115 -106 126 -106 11 0 38 9 62 19 23 10 83
36 132 56 50 21 110 47 135 57 24 11 50 21 57 22 7 1 15 5 19 8 9 10 89 -17
123 -41 17 -13 31 -19 31 -14 0 4 4 3 8 -3 12 -19 88 -53 100 -45 15 9 16 25
7 201 -7 158 -9 181 -20 318 -8 104 -5 108 67 78 19 -8 45 -12 56 -9 22 5 27
17 52 133 22 98 25 101 43 40 8 -30 18 -75 22 -100 11 -68 13 -77 34 -160 37
-143 61 -180 116 -180 17 0 39 -6 50 -14 11 -7 31 -16 45 -19 33 -8 92 -123
96 -187 4 -73 22 -130 71 -220 88 -164 93 -169 289 -310 103 -73 191 -130 204
-130 17 0 102 59 130 90 3 4 22 19 42 34 41 31 73 30 106 -2 10 -9 38 -33 62
-52 24 -19 57 -47 74 -62 46 -42 66 -37 132 38 33 36 73 80 90 97 66 68 72 93
40 156 -9 17 -16 32 -15 33 0 2 -4 16 -10 31 -6 16 -11 31 -11 34 0 3 -6 19
-14 36 -7 18 -20 48 -27 67 -7 19 -28 69 -48 110 -50 107 -50 110 3 110 30 0
48 6 61 20 10 11 24 20 30 20 7 0 15 7 19 15 3 8 11 15 19 15 19 0 87 65 87
84 0 21 -97 305 -109 320 -15 18 -58 139 -71 202 -14 63 -16 79 -25 164 -8 71
-20 111 -61 190 -26 51 -36 86 -43 155 -6 50 -15 106 -21 125 -5 19 -10 50
-10 69 0 35 -36 194 -51 223 -5 10 -9 25 -9 34 0 9 -9 47 -20 83 -10 36 -21
80 -24 96 -3 17 -19 76 -35 130 -16 55 -34 127 -40 160 -6 33 -15 82 -21 109
-15 76 -80 287 -100 326 -22 44 -48 120 -55 162 -3 18 -8 40 -11 49 -2 9 2 21
9 28 8 6 27 31 43 56 15 25 32 45 36 45 4 0 8 6 8 13 0 6 27 41 60 77 33 36
60 69 60 73 0 5 5 5 12 1 6 -4 8 -3 5 3 -9 14 26 49 67 68 18 9 56 37 84 63
28 26 59 54 69 62 19 17 111 19 313 6 118 -7 201 -21 350 -61 47 -13 109 -28
139 -34 30 -7 59 -15 65 -20 13 -9 48 -20 91 -27 17 -3 61 -12 99 -20 37 -8
87 -16 111 -18 43 -3 105 -25 105 -38 0 -4 8 -7 18 -6 18 0 50 -6 117 -23 22
-6 90 -12 150 -15 61 -3 126 -7 145 -11 19 -3 43 -5 53 -4 17 2 18 -8 13 -166
-3 -92 -10 -222 -16 -288 -96 -1130 -131 -1508 -142 -1528 -11 -21 -11 -23
-33 -172 -9 -60 -22 -144 -30 -185 -8 -41 -16 -97 -18 -125 -3 -45 -45 -145
-114 -278 -16 -29 -19 -80 -10 -152 3 -22 8 -74 12 -115 7 -92 13 -127 24
-160 5 -14 22 -67 37 -119 28 -92 30 -96 115 -183 94 -96 82 -91 215 -91 49 0
66 4 85 21 13 12 41 36 61 53 60 49 163 228 200 344 17 55 32 101 33 102 6 10
76 -23 103 -47 17 -17 32 -28 32 -25 0 4 7 0 15 -8 25 -26 297 -127 326 -122
15 3 46 -2 69 -10 42 -15 115 -11 126 6 3 5 17 9 32 9 15 0 46 9 68 19 l41 19
7 73 c3 41 6 119 6 174 -1 254 1 312 10 345 5 19 11 46 13 60 3 14 13 52 22
85 15 49 17 81 11 176 -5 92 -3 123 9 152 8 20 20 72 26 114 6 43 14 84 19 93
7 13 21 109 35 245 2 17 8 71 15 120 6 50 17 151 25 225 8 74 21 171 29 215
25 146 28 179 32 355 4 207 12 290 29 307 9 8 13 42 12 97 l-1 85 37 36 c20
20 52 42 70 50 32 13 48 13 142 1 28 -4 129 -9 225 -11 96 -1 186 -6 200 -9
13 -3 40 -8 60 -10 127 -17 158 -22 163 -26 1 -1 11 -3 22 -4 38 -5 108 -28
161 -51 29 -13 55 -21 58 -17 3 3 6 0 6 -6 0 -7 3 -11 8 -10 8 3 102 -32 118
-44 6 -4 14 -5 17 -1 4 3 7 1 7 -5 0 -7 3 -12 8 -11 14 2 52 -13 52 -21 0 -5
8 -11 18 -14 22 -7 44 -56 47 -109 1 -23 9 -59 18 -79 9 -21 14 -38 11 -38 -3
0 1 -7 8 -15 31 -35 38 -45 31 -46 -4 -1 8 -4 27 -8 42 -7 71 -54 90 -141 10
-46 10 -65 -1 -96 -8 -26 -14 -119 -17 -274 -6 -373 -5 -418 10 -543 15 -116
14 -136 -11 -234 -6 -22 -13 -92 -16 -154 -6 -147 -15 -229 -28 -254 -17 -33
-18 -284 -1 -320 16 -35 71 -75 101 -75 31 0 42 -20 34 -65 -8 -45 -4 -75 10
-75 5 0 9 -8 9 -18 0 -10 3 -22 7 -26 4 -3 8 -12 9 -19 1 -7 11 -32 22 -57 11
-25 39 -90 63 -145 23 -55 48 -109 55 -120 39 -56 221 -245 313 -325 35 -30
79 -70 99 -87 21 -18 46 -33 57 -33 11 0 43 21 72 48 104 95 136 122 147 122
6 0 50 -7 99 -17 65 -12 90 -14 99 -5 21 21 13 176 -13 258 -13 41 -27 74 -32
74 -4 0 -5 5 -1 11 3 6 1 14 -5 18 -6 4 -14 20 -17 36 -3 16 -14 48 -25 72
-11 24 -17 48 -14 53 3 5 -3 18 -15 30 -27 27 -27 64 0 55 11 -4 33 -4 48 0
26 5 28 11 40 83 7 42 12 91 12 108 0 16 4 34 9 40 9 8 13 81 26 508 3 93 8
172 10 176 2 3 5 47 6 96 1 80 20 281 33 366 7 40 13 100 21 188 6 62 18 164
29 240 14 92 27 248 32 370 4 74 7 146 9 160 1 14 3 49 3 78 1 33 6 51 12 47
6 -3 11 1 11 9 1 9 3 21 4 26 1 6 3 15 4 22 0 6 4 8 8 5 3 -4 13 2 20 13 8 11
19 18 24 15 5 -4 9 -1 9 4 0 6 9 11 20 11 23 0 69 19 93 38 9 9 17 11 17 6 0
-5 4 -4 8 1 4 6 32 26 62 45 30 19 61 40 68 47 7 7 20 13 28 13 8 0 14 5 14
10 0 6 7 10 15 10 8 0 15 5 15 11 0 5 5 7 10 4 6 -3 10 -1 10 4 0 6 6 11 13
11 13 0 138 92 185 137 62 60 147 124 156 118 3 -3 4 -2 1 1 -7 11 84 84 105
84 6 0 8 5 5 10 -3 6 -2 10 4 10 10 0 57 45 124 118 21 23 35 42 31 42 -4 0 0
8 9 18 8 9 21 31 27 47 10 26 15 43 24 100 1 6 5 16 9 23 5 6 5 12 1 12 -4 0
1 8 10 19 9 10 19 31 22 47 3 15 8 32 11 38 4 6 10 31 15 56 8 45 15 75 18 75
1 0 3 10 6 23 2 12 6 32 8 45 3 12 5 24 6 27 1 3 3 10 5 15 1 6 3 15 4 20 2 6
3 28 3 50 0 35 22 142 52 250 1 6 6 33 11 60 4 28 12 56 17 62 6 7 8 13 4 13
-4 0 0 12 7 28 8 15 12 32 10 39 -2 6 2 26 10 45 8 18 15 36 16 40 16 54 18
68 10 68 -17 0 -9 39 9 44 10 3 18 14 19 23 1 10 4 32 8 48 3 17 10 55 16 85
5 30 12 66 14 80 6 29 12 82 20 165 3 33 9 78 12 100 9 55 9 473 0 615 -15
238 -22 309 -38 388 -6 30 -8 56 -6 59 3 3 -1 24 -9 46 -8 23 -13 51 -10 62 6
22 -18 179 -40 260 -4 12 -12 51 -19 84 -2 13 -12 49 -21 80 -20 64 -18 56
-28 101 -5 19 -12 40 -16 45 -5 6 -9 15 -10 20 -1 6 -7 21 -13 35 -6 14 -10
28 -9 33 1 4 -2 7 -7 7 -5 0 -12 13 -16 30 -3 16 -15 32 -25 35 -36 12 -33 88
6 134 30 35 78 61 102 54 15 -3 24 0 28 11 5 12 20 15 68 14 71 -2 86 4 81 32
-2 11 3 39 12 63 14 37 28 143 36 264 1 23 7 47 13 53 8 8 9 23 1 52 -9 36 -8
43 9 57 16 14 18 23 11 71 -4 30 -9 109 -12 175 -3 66 -10 152 -16 190 -20
130 -30 259 -35 460 -3 111 -9 201 -15 203 -5 2 -9 8 -9 13 0 6 6 7 13 3 10
-6 10 -4 0 7 -9 8 -13 45 -13 106 0 68 -3 93 -12 93 -9 0 -8 4 2 10 8 5 10 10
4 10 -8 0 -12 25 -13 73 0 71 -1 73 -39 107 -44 40 -49 51 -57 136 -5 56 -3
62 17 72 13 6 51 13 86 16 52 5 187 25 282 41 14 3 50 7 80 10 78 9 96 12 118
24 11 6 22 7 26 4 3 -3 6 -2 6 4 0 6 17 13 38 15 38 6 102 52 102 75 0 7 4 13
10 13 10 0 34 23 90 87 20 22 47 46 60 53 28 15 45 28 68 53 9 9 20 17 25 17
26 0 167 161 187 214 5 14 14 26 19 26 5 0 11 12 14 27 6 30 -28 89 -56 99
-10 3 -29 16 -42 30 -13 13 -29 24 -35 24 -6 0 -13 6 -16 14 -3 8 -24 18 -47
21 -23 4 -46 11 -52 15 -11 8 -81 32 -105 36 -8 1 -26 5 -40 8 -14 4 -43 9
-65 12 -44 6 -61 9 -122 24 -38 9 -68 8 -208 -5 -71 -7 -103 -14 -162 -36 -29
-10 -53 -15 -53 -11 0 4 -4 2 -8 -4 -8 -12 -123 -68 -134 -66 -5 1 -8 -2 -8
-7 0 -15 -50 -24 -152 -27 -86 -3 -99 -1 -108 15 -5 10 -8 20 -7 22 1 2 0 3
-2 2 -7 -4 -30 31 -31 45 0 7 -13 26 -30 42 -25 24 -30 37 -30 75 0 60 1 58
-16 76 -8 9 -11 19 -7 22 3 4 -2 7 -11 7 -12 0 -16 5 -13 14 4 11 1 13 -10 9
-12 -5 -14 -3 -8 7 6 10 3 12 -14 7 -18 -4 -20 -3 -10 9 10 12 7 17 -11 16 -3
0 -4 17 -2 38 3 31 0 41 -17 52 -12 7 -21 18 -21 25 0 7 -5 13 -11 13 -5 0 -8
-4 -5 -9 4 -5 -3 -7 -14 -4 -11 3 -17 10 -13 16 3 6 1 7 -6 3 -6 -4 -19 -2
-28 6 -12 9 -15 9 -9 1 4 -7 2 -13 -4 -13 -6 0 -13 7 -17 16 -5 13 -7 13 -14
2 -6 -9 -9 -10 -9 -1 0 7 -14 20 -31 29 -23 11 -29 12 -23 2 6 -10 5 -11 -8
-1 -8 7 -19 9 -23 5 -5 -4 -6 -2 -3 3 3 6 -1 17 -10 25 -14 13 -15 12 -9 -4 6
-16 5 -17 -8 -6 -8 7 -15 9 -15 4 0 -4 -7 1 -16 12 -8 10 -12 12 -8 4 6 -11 2
-11 -12 2 -16 14 -23 15 -32 6 -9 -9 -12 -9 -12 1 0 9 -8 11 -21 8 -17 -5 -18
-3 -7 11 11 13 10 15 -9 10 -19 -5 -21 -3 -13 12 8 15 6 17 -10 13 -12 -3 -20
0 -20 6 0 7 5 9 12 5 6 -4 8 -3 5 3 -4 6 -18 9 -32 8 -14 -2 -25 1 -25 7 0 7
-5 7 -13 -1 -10 -8 -17 -7 -25 1 -9 9 -12 9 -12 -2 0 -11 -3 -11 -12 -2 -7 7
-17 8 -28 2 -12 -6 -17 -5 -17 5 0 8 4 12 8 9 4 -2 11 0 14 6 4 6 3 10 -2 9
-4 -1 -19 -1 -32 0 -19 1 -21 4 -12 15 10 12 8 14 -11 9 -18 -4 -20 -3 -8 6
12 9 11 11 -7 11 -13 0 -23 5 -23 11 0 5 5 7 12 3 7 -4 8 -3 4 5 -4 6 -12 9
-17 5 -5 -3 -15 -1 -22 5 -7 6 -18 6 -26 1 -8 -4 -21 -6 -29 -2 -10 3 -13 1
-8 -6 4 -7 2 -10 -7 -6 -8 3 -19 -2 -26 -10 -7 -8 -19 -12 -27 -9 -8 3 -14 0
-14 -6 0 -8 -5 -9 -17 -2 -11 5 -26 5 -41 0 -23 -9 -24 -8 -11 8 9 11 10 14 2
9 -8 -4 -13 -2 -13 4 0 6 -4 8 -10 5 -5 -3 -10 -3 -10 2 0 4 -14 8 -30 9 -17
1 -30 -2 -30 -6 0 -12 -36 -18 -52 -9 -7 4 -20 4 -28 -1 -8 -5 -19 -2 -29 9
-9 9 -11 10 -6 2 9 -12 7 -12 -13 -2 -12 6 -27 9 -32 6 -6 -3 -10 -2 -10 4 0
7 -8 7 -25 1 -14 -5 -25 -6 -25 -1 0 10 -272 9 -305 -2z m-215 -111 c0 -2 -7
-7 -16 -10 -8 -3 -12 -2 -9 4 6 10 25 14 25 6z m2170 -1727 c0 -27 -2 -30 -15
-19 -12 10 -15 10 -15 -1 0 -9 -3 -10 -11 -2 -16 16 -1 53 22 53 15 0 19 -7
19 -31z"/>
</g>
</svg>
